<svg version="1.2" baseProfile="tiny-ps" xmlns="http://www.w3.org/2000/svg" viewBox="0 0 105 76" width="105" height="76">
	<title>ERG_05_21_LOGO ERGON ZORGBEMIDDELING_DIAP-WIT_RGB-svg</title>
	<style>
		tspan { white-space:pre }
		.shp0 { fill: #ffffff } 
		.shp1 { opacity: 0.702;fill: #ffffff } 
		.shp2 { opacity: 0.502;fill: #ffffff } 
	</style>
	<g id="Layer">
		<g id="Layer">
			<path id="Layer" fill-rule="evenodd" class="shp0" d="M573.2 28.3L574.2 29.6L573.5 29.6L572.6 28.4L571.8 28.4L571.8 29.6L571.2 29.6L571.2 26.1L572.8 26.1C573.2 26.1 573.6 26.3 573.8 26.5C574 26.7 574.1 27 574.1 27.3C574.1 27.9 573.8 28.2 573.2 28.3ZM571.8 27.9L572.7 27.9C573.1 27.9 573.4 27.7 573.4 27.3C573.4 26.9 573.2 26.7 572.7 26.7L571.8 26.7L571.8 27.9Z" />
			<path id="Layer" fill-rule="evenodd" class="shp0" d="M576 27.9C576 29.8 574.4 31.4 572.5 31.4C570.6 31.4 569 29.8 569 27.9C569 26 570.6 24.4 572.5 24.4C574.4 24.4 576 26 576 27.9ZM575.4 28C575.4 26.4 574.1 25.1 572.5 25.1C570.9 25.1 569.6 26.4 569.6 28C569.6 29.6 570.9 30.9 572.5 30.9C574.1 30.9 575.4 29.6 575.4 28Z" />
		</g>
		<g id="Layer">
			<path id="Layer" class="shp0" d="M249 64L230.9 64L230.9 60L244.5 28.4L230.9 28.4L230.9 24.4L249 24.4L249 28.4L235.3 60L249 60L249 64L249 64Z" />
			<path id="Layer" fill-rule="evenodd" class="shp0" d="M254.8 34C254.8 28 257.8 24 263.8 24C269.9 24 272.9 27.9 272.9 34L272.9 54.5C272.9 60.5 269.9 64.5 263.8 64.5C257.8 64.5 254.8 60.5 254.8 54.5L254.8 34ZM259.2 54.7C259.2 58.3 260.7 60.4 263.9 60.4C267.1 60.4 268.6 58.3 268.6 54.7L268.6 33.8C268.6 30.2 267.1 28.1 263.9 28.1C260.7 28.1 259.2 30.2 259.2 33.8L259.2 54.7Z" />
			<path id="Layer" class="shp0" d="M321.4 34L321.4 37.4L317.2 37.4L317.2 33.8C317.2 30.2 315.8 28.1 312.6 28.1C309.4 28.1 308 30.2 308 33.8L308 54.7C308 58.3 309.5 60.4 312.6 60.4C315.8 60.4 317.2 58.3 317.2 54.7L317.2 45.5L313.1 45.5L313.1 41.5L321.4 41.5L321.4 54.5C321.4 60.5 318.6 64.5 312.5 64.5C306.5 64.5 303.6 60.5 303.6 54.5L303.6 34C303.6 28 306.4 24 312.5 24C318.6 24 321.4 28 321.4 34Z" />
			<path id="Layer" class="shp0" d="M389.5 63.9L385.3 63.9L378.7 32.4L378.7 64L374.9 64L374.9 24.4L381.1 24.4L387.6 56L393.9 24.4L400.1 24.4L400.1 64L395.9 64L395.9 32.2L389.5 63.9Z" />
			<path id="Layer" class="shp0" d="M411.2 24.4L411.2 64L406.8 64L406.8 24.4L411.2 24.4Z" />
			<path id="Layer" fill-rule="evenodd" class="shp0" d="M427.2 24.4C433.4 24.4 436.2 28.1 436.2 34.2L436.2 54.2C436.2 60.2 433.4 64 427.2 64L417.9 64L417.9 24.4L427.2 24.4ZM431.9 54.4L431.9 34C431.9 30.4 430.4 28.4 427.2 28.4L422.5 28.4L422.5 60L427.2 60C430.4 60 431.9 58 431.9 54.4Z" />
			<path id="Layer" fill-rule="evenodd" class="shp0" d="M451.9 24.4C458.1 24.4 460.9 28.1 460.9 34.2L460.9 54.2C460.9 60.2 458.1 64 451.9 64L442.6 64L442.6 24.4L451.9 24.4ZM456.5 54.4L456.5 34C456.5 30.4 455 28.4 451.8 28.4L447 28.4L447 60L451.8 60C455 60 456.5 58 456.5 54.4Z" />
			<path id="Layer" class="shp0" d="M489.9 64L489.9 24.4L494.3 24.4L494.3 60L505.6 60L505.6 64L489.9 64Z" />
			<path id="Layer" class="shp0" d="M515.6 24.4L515.6 64L511.2 64L511.2 24.4L515.6 24.4Z" />
			<path id="Layer" class="shp0" d="M565.2 34L565.2 37.4L561 37.4L561 33.8C561 30.2 559.6 28.1 556.4 28.1C553.2 28.1 551.8 30.2 551.8 33.8L551.8 54.7C551.8 58.3 553.3 60.4 556.4 60.4C559.6 60.4 561 58.3 561 54.7L561 45.4L557 45.4L557 41.4L565.3 41.4L565.3 54.4C565.3 60.4 562.5 64.4 556.4 64.4C550.4 64.4 547.5 60.4 547.5 54.4L547.5 34C547.5 28 550.3 24 556.4 24C562.4 24 565.2 28 565.2 34Z" />
			<path id="Layer" class="shp0" d="M526.7 64L522.3 64L522.3 24.5L528.3 24.5L537.4 53L537.4 24.5L541.8 24.5L541.8 64L536.7 64L526.6 32.1L526.7 64Z" />
			<path id="Layer" class="shp0" d="M112.5 63.9L129.4 63.9L129.4 58.3L118.7 58.3L118.7 47L125.8 47L125.8 41.4L118.7 41.4L118.7 30.1L129.4 30.1L129.4 24.5L112.5 24.5L112.5 63.9Z" />
			<path id="Layer" class="shp0" d="M167.6 24.1C161.5 24.1 158.4 27.7 158.4 34L158.4 54.5C158.4 60.8 161.5 64.4 167.6 64.4C173.7 64.4 176.8 60.8 176.8 54.5L176.8 41.4L168.1 41.4L168.1 47L170.9 47L170.9 54.8C170.9 57.6 169.7 58.6 167.7 58.6C165.7 58.6 164.5 57.6 164.5 54.8L164.5 33.5C164.5 30.7 165.7 29.6 167.7 29.6C169.7 29.6 170.9 30.7 170.9 33.5L170.9 37.7L176.8 37.7L176.8 34C176.8 27.7 173.7 24.1 167.6 24.1Z" />
			<path id="Layer" fill-rule="evenodd" class="shp0" d="M200.7 34L200.7 54.5C200.7 60.8 197.4 64.4 191.3 64.4C185.2 64.4 181.9 60.8 181.9 54.5L181.9 34C181.9 27.7 185.2 24.1 191.3 24.1C197.4 24.1 200.7 27.7 200.7 34ZM194.5 33.6C194.5 30.8 193.3 29.7 191.3 29.7C189.3 29.7 188.1 30.8 188.1 33.6L188.1 54.9C188.1 57.7 189.3 58.8 191.3 58.8C193.3 58.8 194.5 57.7 194.5 54.9L194.5 33.6Z" />
			<path id="Layer" class="shp0" d="M220.2 48.1L213.8 24.5L205.8 24.5L205.8 63.9L211.6 63.9L211.6 35.4L219.4 63.9L226.1 63.9L226.1 24.5L220.2 24.5L220.2 48.1Z" />
			<path id="Layer" fill-rule="evenodd" class="shp0" d="M153.2 33.5L153.2 36.6C153.2 40.7 151.9 43.3 149.2 44.6C151.9 45.9 153.2 48.6 153.2 52.6L153.2 63.9L147 63.9L147 51.2C147 48 145.6 47 143.3 47L140.9 47L140.9 63.9L134.7 63.9L134.7 24.5L144.1 24.5C150.5 24.5 153.2 27.5 153.2 33.5ZM147 37.2L147.1 34.2C147.1 31.3 146.1 30.1 143.9 30.1L140.9 30.1L140.9 41.4L143.3 41.4C145.6 41.4 147 40.4 147 37.2Z" />
			<path id="Layer" fill-rule="evenodd" class="shp0" d="M345.6 33.3L345.6 35.4C345.6 39.5 344.4 42.1 341 43.2C344.4 44.2 345.6 46.8 345.6 51L345.6 55.2C345.6 61.1 343.2 64 337 64L328.1 64L328.1 24.5L337 24.5C343.2 24.5 345.6 27.4 345.6 33.3ZM336.1 45.5L332.7 45.5L332.7 60L337 60C340.1 60 341.3 58.3 341.3 54.8L341.3 50.7C341.3 46.6 339.4 45.4 336.1 45.5ZM341.3 36.2L341.2 33.7C341.2 30.2 340.1 28.5 336.9 28.5L332.6 28.5L332.6 41.5L336 41.5C339.5 41.5 341.3 40.3 341.3 36.2Z" />
			<path id="Layer" fill-rule="evenodd" class="shp0" d="M297.1 63.9L292.8 64L292.8 50.4C292.8 46.1 290.7 45.4 287.2 45.4L283.9 45.4L283.9 64L279.5 64L279.5 24.5L288.3 24.5C294.5 24.5 297.1 27.6 297.1 33.5L297.1 35C297.1 39.3 295.6 42 292.2 43.1C292.6 43.2 293 43.3 293.3 43.5C295.9 44.8 297.1 47.4 297.1 51.2L297.1 63.9ZM283.9 28.4L283.9 41.3L287.2 41.3C290.7 41.3 292.8 40.2 292.8 35.9L292.8 33.8C292.8 30.3 291.5 28.4 288.2 28.4L283.9 28.4Z" />
			<path id="Layer" class="shp0" d="M364.9 41.4L364.9 45.3L356.7 45.3L356.7 60L368.5 60L368.5 64L352.3 64L352.3 24.5L368.5 24.5L368.5 28.5L356.7 28.5L356.7 41.4L364.9 41.4L364.9 41.4Z" />
			<path id="Layer" class="shp0" d="M479.9 41.4L479.9 45.3L471.7 45.3L471.7 60L483.5 60L483.5 64L467.3 64L467.3 24.5L483.5 24.5L483.5 28.5L471.7 28.5L471.7 41.4L479.9 41.4L479.9 41.4Z" />
		</g>
		<path id="Layer" class="shp1" d="M63.5 76.3L86.9 52.9C91.3 48.4 94 42.3 94 35.5C94 21.7 82.8 10.6 69.1 10.6C62 10.6 55.5 13.6 51 18.4C47.2 14.4 42.2 11.7 36.5 10.9L63.5 76.3Z" />
		<path id="Layer" class="shp2" d="M65.4 10.9C59.7 11.7 54.7 14.5 50.9 18.4C46.4 13.6 39.9 10.6 32.8 10.6C19 10.6 7.9 21.8 7.9 35.5C7.9 42.3 10.6 48.4 15 52.9L38.4 76.3L65.4 10.9Z" />
		<path id="Layer" class="shp0" d="M50.9 18.4C47.1 14.4 42.1 11.7 36.4 10.9L50.9 45.9L65.4 10.9C59.7 11.7 54.6 14.5 50.9 18.4Z" />
	</g>
</svg>