<svg width="23" height="23" viewBox="0 0 23 23" fill="none" xmlns="http://www.w3.org/2000/svg">
<path fill-rule="evenodd" clip-rule="evenodd" d="M5.42709 6.92152C6.40076 9.04897 6.10335 11.2553 4.76291 11.8508C3.42243 12.4464 1.54649 11.2051 0.572917 9.07808C-0.400744 6.95104 -0.103383 4.74451 1.2371 4.14904C2.57758 3.55374 4.45343 4.79508 5.42709 6.92152Z" fill="#FECA57"/>
<path fill-rule="evenodd" clip-rule="evenodd" d="M17.5729 6.92152C16.5992 9.04897 16.8966 11.2553 18.2372 11.8508C19.5777 12.4464 21.4534 11.2051 22.4272 9.07808C23.4007 6.95104 23.1033 4.74451 21.7629 4.14904C20.4225 3.55374 18.5466 4.79508 17.5729 6.92152Z" fill="#FECA57"/>
<path fill-rule="evenodd" clip-rule="evenodd" d="M10.8333 3.46948C11.3766 5.65886 10.5484 7.67109 8.98358 7.96425C7.41886 8.25701 5.70992 6.71952 5.16669 4.53034C4.62347 2.341 5.45161 0.328689 7.01641 0.0358078C8.58119 -0.257195 10.2901 1.2801 10.8333 3.46948Z" fill="#FECA57"/>
<path fill-rule="evenodd" clip-rule="evenodd" d="M12.1388 3.46953C11.6864 5.65892 12.3761 7.67139 13.6801 7.96416C14.9842 8.25733 16.4084 6.7198 16.8611 4.53045C17.3138 2.34103 16.6237 0.328679 15.3196 0.0357918C14.0155 -0.257136 12.5913 1.28011 12.1388 3.46953Z" fill="#FECA57"/>
<path fill-rule="evenodd" clip-rule="evenodd" d="M8.60282 10.9208C8.23254 11.5603 6.51666 13.6774 5.32985 14.3997C4.14313 15.1219 2.67258 16.1796 2.91936 18.608C3.166 21.037 5.65721 22.0765 7.2972 21.9843C8.93728 21.8926 12.0294 21.5906 14.237 21.8966C16.4445 22.2026 19.2307 21.9708 19.8832 19.6453C20.5357 17.3199 19.0764 15.8383 17.9377 14.9976C16.7991 14.1574 14.8975 11.644 14.3116 10.4901C13.7259 9.3366 10.7443 7.22406 8.60282 10.9208Z" fill="#FECA57"/>
</svg>
